<svg id="Capa_1" enable-background="new 0 0 512 512" height="512" viewBox="0 0 512 512" width="512" xmlns="http://www.w3.org/2000/svg" xmlns:xlink="http://www.w3.org/1999/xlink"><linearGradient id="SVGID_1_" gradientUnits="userSpaceOnUse" x1="256" x2="256" y1="512" y2="0"><stop offset="0" stop-color="#ffc2cc"/><stop offset="1" stop-color="#fff2f4"/></linearGradient><linearGradient id="SVGID_2_" gradientUnits="userSpaceOnUse" x1="256" x2="256" y1="398" y2="114"><stop offset="0" stop-color="#ffa68d"/><stop offset="1" stop-color="#fd3a84"/></linearGradient><g><g><circle cx="256" cy="256" fill="url(#SVGID_1_)" r="256"/></g><g><g><path d="m184.941 167.25c-4.901 0-8.882 3.978-8.882 8.875s3.981 8.875 8.882 8.875 8.882-3.978 8.882-8.875-3.981-8.875-8.882-8.875zm-17.764 53.25c-4.901 0-8.882 3.978-8.882 8.875v39.468c8.376 2.984 17.258 4.907 26.647 4.907s18.271-1.923 26.647-4.907v-39.468c0-4.897-3.981-8.875-8.883-8.875zm-26.648 39.729v-30.854c0-14.682 11.953-26.625 26.647-26.625h17.765c-14.694 0-26.647-11.943-26.647-26.625s11.953-26.625 26.647-26.625 26.647 11.943 26.647 26.625-11.953 26.625-26.647 26.625h17.765c14.694 0 26.647 11.943 26.647 26.625v30.854c21.401-14.347 35.529-38.722 35.529-66.354 0-44.046-35.859-79.875-79.941-79.875s-79.941 35.829-79.941 79.875c0 27.631 14.128 52.006 35.529 66.354zm186.53 31.271c-4.901 0-8.882 3.978-8.882 8.875s3.981 8.875 8.882 8.875 8.882-3.978 8.882-8.875-3.981-8.875-8.882-8.875zm17.764 53.25h-35.529c-4.901 0-8.883 3.978-8.883 8.875v39.468c8.376 2.984 17.259 4.907 26.647 4.907s18.271-1.923 26.647-4.907v-39.468c.001-4.897-3.981-8.875-8.882-8.875zm-17.764-106.5c-44.082 0-79.941 35.829-79.941 79.875 0 27.631 14.128 52.006 35.529 66.354v-30.854c0-14.682 11.953-26.625 26.647-26.625h17.765c-14.694 0-26.647-11.943-26.647-26.625s11.953-26.625 26.647-26.625 26.647 11.943 26.647 26.625-11.953 26.625-26.647 26.625h17.765c14.694 0 26.647 11.943 26.647 26.625v30.854c21.401-14.348 35.529-38.723 35.529-66.354 0-44.046-35.859-79.875-79.941-79.875zm71.059-106.5h-124.353c-4.91 0-8.882 3.969-8.882 8.875s3.973 8.875 8.882 8.875c4.901 0 8.882 3.978 8.882 8.875v53.25c0 4.906 3.973 8.875 8.882 8.875h106.588c4.91 0 8.882-3.969 8.882-8.875v-71c.001-4.906-3.972-8.875-8.881-8.875zm-71.059 53.25c-4.905 0-8.882-3.974-8.882-8.875 0-4.902 3.977-8.875 8.882-8.875s8.882 3.973 8.882 8.875c0 4.901-3.977 8.875-8.882 8.875zm35.529 0c-4.905 0-8.883-3.974-8.883-8.875 0-4.902 3.977-8.875 8.883-8.875 4.905 0 8.882 3.973 8.882 8.875.001 4.901-3.977 8.875-8.882 8.875zm-124.353 177.5c-4.901 0-8.882-3.978-8.882-8.875v-53.25c0-4.906-3.973-8.875-8.882-8.875h-106.589c-4.91 0-8.882 3.969-8.882 8.875v71c0 4.906 3.973 8.875 8.882 8.875h124.353c4.91 0 8.882-3.969 8.882-8.875s-3.972-8.875-8.882-8.875zm-88.823-17.75c-4.905 0-8.882-3.974-8.882-8.875 0-4.902 3.977-8.875 8.882-8.875s8.883 3.973 8.883 8.875c-.001 4.901-3.978 8.875-8.883 8.875zm35.529 0c-4.905 0-8.882-3.974-8.882-8.875 0-4.902 3.977-8.875 8.882-8.875s8.882 3.973 8.882 8.875c0 4.901-3.977 8.875-8.882 8.875z" fill="url(#SVGID_2_)"/></g></g></g></svg>