<?xml version="1.0" encoding="utf-8"?>
<!-- Generator: Adobe Illustrator 23.0.0, SVG Export Plug-In . SVG Version: 6.00 Build 0)  -->
<svg version="1.1" id="Capa_1" xmlns="http://www.w3.org/2000/svg" xmlns:xlink="http://www.w3.org/1999/xlink" x="0px" y="0px"
	 viewBox="0 0 80 80" style="enable-background:new 0 0 80 80;" xml:space="preserve">
<style type="text/css">
	.st0{fill:url(#SVGID_1_);}
	.st1{fill:url(#SVGID_2_);}
</style>
<g>
	<g>
		
			<linearGradient id="SVGID_1_" gradientUnits="userSpaceOnUse" x1="40" y1="-9.094947e-13" x2="40" y2="80" gradientTransform="matrix(1 0 0 -1 0 80)">
			<stop  offset="0" style="stop-color:#FFC2CC"/>
			<stop  offset="1" style="stop-color:#FFF2F4"/>
		</linearGradient>
		<circle class="st0" cx="40" cy="40" r="40"/>
	</g>
	<g>
		<g>
			
				<linearGradient id="SVGID_2_" gradientUnits="userSpaceOnUse" x1="40" y1="17.8125" x2="40" y2="62.1875" gradientTransform="matrix(1 0 0 -1 0 80)">
				<stop  offset="0" style="stop-color:#FFA68D"/>
				<stop  offset="1" style="stop-color:#FD3A84"/>
			</linearGradient>
			<path class="st1" d="M28.9,26.1c-0.8,0-1.4,0.6-1.4,1.4s0.6,1.4,1.4,1.4s1.4-0.6,1.4-1.4S29.7,26.1,28.9,26.1z M26.1,34.5
				c-0.8,0-1.4,0.6-1.4,1.4V42c1.3,0.5,2.7,0.8,4.2,0.8c1.5,0,2.9-0.3,4.2-0.8v-6.2c0-0.8-0.6-1.4-1.4-1.4L26.1,34.5z M22,40.7v-4.8
				c0-2.3,1.9-4.2,4.2-4.2h2.8c-2.3,0-4.2-1.9-4.2-4.2s1.9-4.2,4.2-4.2s4.2,1.9,4.2,4.2s-1.9,4.2-4.2,4.2h2.8c2.3,0,4.2,1.9,4.2,4.2
				v4.8c3.3-2.2,5.6-6.1,5.6-10.4c0-6.9-5.6-12.5-12.5-12.5s-12.5,5.6-12.5,12.5C16.4,34.6,18.6,38.4,22,40.7z M51.1,45.5
				c-0.8,0-1.4,0.6-1.4,1.4s0.6,1.4,1.4,1.4c0.8,0,1.4-0.6,1.4-1.4S51.9,45.5,51.1,45.5z M53.9,53.9h-5.6c-0.8,0-1.4,0.6-1.4,1.4
				v6.2c1.3,0.5,2.7,0.8,4.2,0.8c1.5,0,2.9-0.3,4.2-0.8v-6.2C55.3,54.5,54.6,53.9,53.9,53.9L53.9,53.9z M51.1,37.2
				c-6.9,0-12.5,5.6-12.5,12.5c0,4.3,2.2,8.1,5.6,10.4v-4.8c0-2.3,1.9-4.2,4.2-4.2h2.8c-2.3,0-4.2-1.9-4.2-4.2s1.9-4.2,4.2-4.2
				c2.3,0,4.2,1.9,4.2,4.2s-1.9,4.2-4.2,4.2h2.8c2.3,0,4.2,1.9,4.2,4.2v4.8c3.3-2.2,5.6-6.1,5.6-10.4C63.6,42.8,58,37.2,51.1,37.2z
				 M62.2,20.6H42.8c-0.8,0-1.4,0.6-1.4,1.4s0.6,1.4,1.4,1.4c0.8,0,1.4,0.6,1.4,1.4v8.3c0,0.8,0.6,1.4,1.4,1.4h16.7
				c0.8,0,1.4-0.6,1.4-1.4V22C63.6,21.2,63,20.6,62.2,20.6L62.2,20.6z M51.1,28.9c-0.8,0-1.4-0.6-1.4-1.4c0-0.8,0.6-1.4,1.4-1.4
				c0.8,0,1.4,0.6,1.4,1.4C52.5,28.3,51.9,28.9,51.1,28.9z M56.7,28.9c-0.8,0-1.4-0.6-1.4-1.4c0-0.8,0.6-1.4,1.4-1.4
				c0.8,0,1.4,0.6,1.4,1.4C58,28.3,57.4,28.9,56.7,28.9z M37.2,56.6c-0.8,0-1.4-0.6-1.4-1.4v-8.3c0-0.8-0.6-1.4-1.4-1.4H17.8
				c-0.8,0-1.4,0.6-1.4,1.4V58c0,0.8,0.6,1.4,1.4,1.4h19.4c0.8,0,1.4-0.6,1.4-1.4S38,56.6,37.2,56.6z M23.3,53.9
				c-0.8,0-1.4-0.6-1.4-1.4c0-0.8,0.6-1.4,1.4-1.4c0.8,0,1.4,0.6,1.4,1.4C24.7,53.2,24.1,53.9,23.3,53.9z M28.9,53.9
				c-0.8,0-1.4-0.6-1.4-1.4c0-0.8,0.6-1.4,1.4-1.4c0.8,0,1.4,0.6,1.4,1.4C30.3,53.2,29.7,53.9,28.9,53.9z"/>
		</g>
	</g>
</g>
</svg>
