<svg width="51" height="51" viewBox="0 0 51 51" fill="none" xmlns="http://www.w3.org/2000/svg">
<path d="M20.5237 20.2064C20.5237 17.8007 18.887 17.8007 18.887 17.8007H12.1534V22.9628H18.4696C19.561 22.9623 20.5237 22.6132 20.5237 20.2064Z" fill="#262626"/>
<path d="M18.8875 26.5283H12.1534V32.711H18.5765C19.5428 32.6833 21.3261 32.3807 21.3261 29.7057C21.3261 26.496 18.8875 26.5283 18.8875 26.5283Z" fill="#262626"/>
<path d="M36.1268 22.9623C32.5534 22.9623 32.0551 26.5283 32.0551 26.5283H39.6543C39.6543 26.5283 39.7002 22.9623 36.1268 22.9623Z" fill="#262626"/>
<path d="M25.5 0C11.4167 0 0 11.4172 0 25.5C0 39.5828 11.4167 51 25.5 51C39.5833 51 51 39.5828 51 25.5C51 11.4172 39.5833 0 25.5 0ZM31.0597 15.0511H40.6043V17.8998H31.0597V15.0511ZM26.2357 29.9927C26.2357 37.0534 18.8875 36.8212 18.8875 36.8212H6.84939V13.6883H18.887C22.5454 13.6883 25.4332 15.708 25.4332 19.8475C25.4332 23.9875 21.9031 24.2499 21.9031 24.2499C26.5565 24.2499 26.2357 29.9927 26.2357 29.9927ZM36.1722 33.6412C40.0174 33.6412 39.8812 31.1525 39.8812 31.1525H43.9523C43.9523 37.7572 36.0365 37.3049 36.0365 37.3049C26.5372 37.3049 27.1482 28.4614 27.1482 28.4614C27.1482 28.4614 27.1409 19.5741 36.0355 19.5741C45.3991 19.5741 44.088 29.615 44.088 29.615H32.101C32.101 33.9136 36.1722 33.6412 36.1722 33.6412Z" fill="#262626"/>
</svg>
