<svg id="Capa_1" data-name="Capa 1" xmlns="http://www.w3.org/2000/svg" viewBox="0 0 66 69"><defs><style>.cls-1{fill:#fff;}</style></defs><title>icon-bancon-09</title><path class="cls-1" d="M44.87,39.28A17.1,17.1,0,1,1,62,22.18,17.12,17.12,0,0,1,44.87,39.28Zm0-31.75A14.65,14.65,0,1,0,59.52,22.18,14.66,14.66,0,0,0,44.87,7.53Z"/><path class="cls-1" d="M46.09,30.73H40a1.22,1.22,0,0,1,0-2.44h6.11a2.45,2.45,0,0,0,0-4.89H43.65a4.88,4.88,0,1,1,0-9.76h6.1a1.22,1.22,0,0,1,0,2.44h-6.1a2.44,2.44,0,1,0,0,4.88h2.44a4.89,4.89,0,0,1,0,9.77Z"/><path class="cls-1" d="M44.87,34.39a1.21,1.21,0,0,1-1.22-1.22V29.51a1.22,1.22,0,0,1,2.44,0v3.66A1.22,1.22,0,0,1,44.87,34.39Z"/><path class="cls-1" d="M44.87,16.08a1.22,1.22,0,0,1-1.22-1.22V11.2a1.22,1.22,0,1,1,2.44,0v3.66A1.22,1.22,0,0,1,44.87,16.08Z"/><path class="cls-1" d="M11.9,58.81H4.58a1.22,1.22,0,0,1-1.22-1.22v-22a1.22,1.22,0,0,1,1.22-1.22c8.3,0,12.69,2.8,12.87,2.92A1.22,1.22,0,0,1,18,38.63L13.09,57.89A1.23,1.23,0,0,1,11.9,58.81ZM5.8,56.37H11L15.37,39a24.35,24.35,0,0,0-9.57-2.1Z"/><path class="cls-1" d="M35.1,63.69c-5.76,0-16.9-4.84-23-7.73a1.24,1.24,0,0,1-.59-1.63,1.22,1.22,0,0,1,1.63-.58c4.78,2.26,16.5,7.5,22,7.5,5.94,0,19.94-7,24-9a5.25,5.25,0,0,0-4.43-1.94c-2.25,0-5.11.9-7.87,1.78-2.94.92-6,1.89-8.61,1.89-5,0-11.73-2.42-12-2.52A1.22,1.22,0,1,1,27,49.12c.07,0,6.57,2.36,11.18,2.36,2.26,0,5.11-.9,7.88-1.77,2.93-.93,6-1.89,8.6-1.89,5.7,0,7.2,4.32,7.26,4.5a1.21,1.21,0,0,1-.58,1.46C60.55,54.18,42.64,63.69,35.1,63.69Z"/><path class="cls-1" d="M43.65,52.92a1.22,1.22,0,0,1-1.23-1.22V50.48a3.6,3.6,0,0,0-2.79-3.54L16.06,41.25a1.22,1.22,0,0,1-.9-1.48,1.24,1.24,0,0,1,1.47-.9l23.56,5.69a6.05,6.05,0,0,1,4.68,5.92V51.7A1.22,1.22,0,0,1,43.65,52.92Z"/></svg>