<svg id="Capa_1" data-name="Capa 1" xmlns="http://www.w3.org/2000/svg" viewBox="0 0 66 69"><defs><style>.cls-1{fill:#fff;}</style></defs><title>icon-bancon-010</title><path class="cls-1" d="M27.18,64.32a6.2,6.2,0,0,1-4.37-1.79L5.49,45.38a6.07,6.07,0,0,1-.12-8.53L33.27,8.21a8.74,8.74,0,0,1,6.28-2.67H56.87a6.17,6.17,0,0,1,6.19,6.13V28.81A8.55,8.55,0,0,1,60.36,35L31.44,62.64A6.23,6.23,0,0,1,27.18,64.32ZM39.55,8a6.15,6.15,0,0,0-4.49,1.92L7.16,38.54a3.6,3.6,0,0,0-1,2.51,3.64,3.64,0,0,0,1.09,2.6L24.56,60.79a3.82,3.82,0,0,0,5.17.07l28.91-27.6h0a6,6,0,0,0,1.94-4.45V11.67A3.7,3.7,0,0,0,56.87,8Z"/><path class="cls-1" d="M50.69,22.69a4.9,4.9,0,1,1,5-4.9A4.93,4.93,0,0,1,50.69,22.69Zm0-7.35a2.45,2.45,0,1,0,2.47,2.45A2.47,2.47,0,0,0,50.69,15.34Z"/><path class="cls-1" d="M26.93,52.07a.75.75,0,0,1-.21,0,1.2,1.2,0,0,1-1-1l-1.39-7.21L17.06,42.5a1.21,1.21,0,0,1-1-1,1.23,1.23,0,0,1,.58-1.27l6.66-3.92-.59-7.43a1.22,1.22,0,0,1,.68-1.19,1.25,1.25,0,0,1,1.37.18l5.46,4.82,7-3.19a1.24,1.24,0,0,1,1.39.25,1.19,1.19,0,0,1,.25,1.37L35.61,38l4.86,5.4a1.19,1.19,0,0,1,.19,1.35,1.22,1.22,0,0,1-1.2.68L32,44.89l-4,6.58A1.22,1.22,0,0,1,26.93,52.07ZM20.72,40.7l4.9.92a1.23,1.23,0,0,1,1,1l.93,4.85L30.22,43a1.26,1.26,0,0,1,1.16-.6l5.2.41-3.36-3.72a1.21,1.21,0,0,1-.2-1.33l2.15-4.59-4.64,2.13a1.26,1.26,0,0,1-1.34-.2l-3.76-3.33.4,5.14a1.2,1.2,0,0,1-.6,1.15Z"/></svg>