<svg id="Capa_1" data-name="Capa 1" xmlns="http://www.w3.org/2000/svg" viewBox="0 0 66 69"><defs><style>.cls-1{fill:#fff;}</style></defs><title>icon-bancon-011</title><path class="cls-1" d="M44.63,52.1A18.08,18.08,0,1,1,62.7,34,18.1,18.1,0,0,1,44.63,52.1Zm0-33.56A15.49,15.49,0,1,0,60.12,34,15.5,15.5,0,0,0,44.63,18.54Z"/><path class="cls-1" d="M45.92,43.06H39.46a1.29,1.29,0,0,1,0-2.58h6.46a2.58,2.58,0,0,0,0-5.16H43.34a5.17,5.17,0,1,1,0-10.33h6.45a1.29,1.29,0,0,1,0,2.58H43.34a2.59,2.59,0,1,0,0,5.17h2.58a5.16,5.16,0,0,1,0,10.32Z"/><path class="cls-1" d="M44.63,46.94a1.29,1.29,0,0,1-1.29-1.29V41.77a1.29,1.29,0,1,1,2.58,0v3.88A1.29,1.29,0,0,1,44.63,46.94Z"/><path class="cls-1" d="M44.63,27.57a1.29,1.29,0,0,1-1.29-1.29V22.41a1.29,1.29,0,0,1,2.58,0v3.87A1.29,1.29,0,0,1,44.63,27.57Z"/><path class="cls-1" d="M38.17,65H9.77a6.46,6.46,0,0,1-6.45-6.46V9.5A6.46,6.46,0,0,1,9.77,3h28.4A6.47,6.47,0,0,1,44.63,9.5v2.58a1.29,1.29,0,0,1-2.58,0V9.5a3.88,3.88,0,0,0-3.88-3.87H9.77A3.87,3.87,0,0,0,5.9,9.5V58.55a3.88,3.88,0,0,0,3.87,3.88h28.4a3.88,3.88,0,0,0,3.88-3.88V56a1.29,1.29,0,0,1,2.58,0v2.58A6.47,6.47,0,0,1,38.17,65Z"/><path class="cls-1" d="M29.14,10.79H18.81a3.87,3.87,0,0,1-3.87-3.87,1.29,1.29,0,0,0-1.3-1.29H11.06a1.3,1.3,0,0,1,0-2.59h2.58a3.88,3.88,0,0,1,3.88,3.88,1.29,1.29,0,0,0,1.29,1.29H29.14a1.29,1.29,0,0,0,1.29-1.29A3.88,3.88,0,0,1,34.3,3h2.58a1.3,1.3,0,0,1,0,2.59H34.3A1.29,1.29,0,0,0,33,6.92,3.88,3.88,0,0,1,29.14,10.79Z"/></svg>