<svg width="51" height="51" viewBox="0 0 51 51" fill="none" xmlns="http://www.w3.org/2000/svg">
<path d="M25.5 0C11.4189 0 0 11.4189 0 25.5C0 39.5811 11.4189 51 25.5 51C39.5811 51 51 39.5811 51 25.5C51 11.4189 39.5811 0 25.5 0ZM18.09 38.5488H11.8796V19.8647H18.09V38.5488ZM14.985 17.3134H14.9445C12.8605 17.3134 11.5127 15.8787 11.5127 14.0858C11.5127 12.2523 12.9017 10.8574 15.0262 10.8574C17.1507 10.8574 18.4581 12.2523 18.4986 14.0858C18.4986 15.8787 17.1507 17.3134 14.985 17.3134ZM40.4834 38.5488H34.2738V28.5533C34.2738 26.0412 33.3746 24.328 31.1275 24.328C29.412 24.328 28.3902 25.4837 27.9412 26.5992C27.777 26.9984 27.7369 27.5564 27.7369 28.1147V38.5488H21.5269C21.5269 38.5488 21.6082 21.6176 21.5269 19.8647H27.7369V22.5102C28.5622 21.237 30.0388 19.4262 33.3337 19.4262C37.4197 19.4262 40.4834 22.0965 40.4834 27.8354V38.5488Z" fill="#262626"/>
</svg>
