<svg width="51" height="51" viewBox="0 0 51 51" fill="none" xmlns="http://www.w3.org/2000/svg">
<path d="M30.4473 25.7988C30.4473 25.0684 30.3809 24.36 30.248 23.6738H18.2285V28.0566H25.4336C25.168 29.7389 24.3434 31.0726 22.96 32.0576C21.5765 33.0426 19.9993 33.5352 18.2285 33.5352C16.0371 33.5352 14.1667 32.7438 12.6172 31.1611C11.0677 29.5785 10.293 27.6914 10.293 25.5C10.293 23.3086 11.0677 21.4215 12.6172 19.8389C14.1667 18.2562 16.0371 17.4648 18.2285 17.4648C20.2871 17.4648 21.9805 18.1178 23.3086 19.4238L26.7617 16.0703C24.3711 13.8568 21.5267 12.75 18.2285 12.75C14.6868 12.75 11.6764 13.9951 9.19727 16.4854C6.7181 18.9756 5.47852 21.9805 5.47852 25.5C5.47852 29.0195 6.7181 32.0244 9.19727 34.5146C11.6764 37.0049 14.6868 38.25 18.2285 38.25C21.8809 38.25 24.8304 37.0879 27.0771 34.7637C29.3239 32.4395 30.4473 29.4512 30.4473 25.7988ZM41.9023 27.3262H45.5215V23.6738H41.9023V20.0215H38.25V23.6738H34.5977V27.3262H38.25V30.9785H41.9023V27.3262ZM51 25.5C51 30.1263 49.86 34.3929 47.5801 38.2998C45.3001 42.2067 42.2067 45.3001 38.2998 47.5801C34.3929 49.86 30.1263 51 25.5 51C20.8737 51 16.6071 49.86 12.7002 47.5801C8.79329 45.3001 5.69987 42.2067 3.41992 38.2998C1.13997 34.3929 0 30.1263 0 25.5C0 20.8737 1.13997 16.6071 3.41992 12.7002C5.69987 8.79329 8.79329 5.69987 12.7002 3.41992C16.6071 1.13997 20.8737 0 25.5 0C30.1263 0 34.3929 1.13997 38.2998 3.41992C42.2067 5.69987 45.3001 8.79329 47.5801 12.7002C49.86 16.6071 51 20.8737 51 25.5Z" fill="#262626"/>
</svg>
