<svg id="Capa_1" enable-background="new 0 0 512 512" height="512" viewBox="0 0 512 512" width="512" xmlns="http://www.w3.org/2000/svg" xmlns:xlink="http://www.w3.org/1999/xlink"><linearGradient id="SVGID_1_" gradientUnits="userSpaceOnUse" x1="256" x2="256" y1="512" y2="0"><stop offset="0" stop-color="#ffc2cc"/><stop offset="1" stop-color="#fff2f4"/></linearGradient><linearGradient id="SVGID_2_" gradientUnits="userSpaceOnUse" x1="256" x2="256" y1="362.5" y2="149.5"><stop offset="0" stop-color="#ffa68d"/><stop offset="1" stop-color="#fd3a84"/></linearGradient><g><g><circle cx="256" cy="256" fill="url(#SVGID_1_)" r="256"/></g><g><g><path d="m406.063 260.906-48.385-96.689c-4.545-9.075-13.678-14.717-23.836-14.717h-24.548c-4.91 0-8.883 3.969-8.883 8.875s3.973 8.875 8.883 8.875h24.548c3.392 0 6.436 1.881 7.946 4.906l41.957 83.844c-2.518 0-252.381 0-255.489 0l41.957-83.844c1.509-3.025 4.554-4.906 7.946-4.906h24.548c4.91 0 8.883-3.969 8.883-8.875s-3.973-8.875-8.883-8.875h-24.548c-10.157 0-19.291 5.642-23.837 14.717l-48.385 96.689c-1.089 3.829-.534 2.191-.937 3.969v26.625c0 39.149 31.877 71 71.059 71 33.012 0 60.59-22.715 68.536-53.25h22.811c7.946 30.535 35.524 53.25 68.536 53.25 39.181 0 71.059-31.851 71.059-71v-26.625c-.208-.998-.449-2.162-.938-3.969zm-141.181 30.594h-17.765v-17.75h17.765z" fill="url(#SVGID_2_)"/></g></g></g></svg>