<svg id="Capa_1" data-name="Capa 1" xmlns="http://www.w3.org/2000/svg" xmlns:xlink="http://www.w3.org/1999/xlink" viewBox="0 0 150 54"><defs><style>.cls-1{fill:url(#Degradado_sin_nombre_15);}.cls-2{fill:#e6244a;}.cls-3{fill:#fff;}</style><linearGradient id="Degradado_sin_nombre_15" x1="25.69" y1="2.23" x2="25.69" y2="52.32" gradientUnits="userSpaceOnUse"><stop offset="0.3" stop-color="#ff848a"/><stop offset="0.33" stop-color="#fd7e86"/><stop offset="0.57" stop-color="#f14d66"/><stop offset="0.75" stop-color="#e92f52"/><stop offset="0.85" stop-color="#e6244a"/></linearGradient></defs><title>logo</title><path class="cls-1" d="M39.62,29.33A12.62,12.62,0,0,1,49.62,17a25,25,0,1,0-1.94,24.11A12.62,12.62,0,0,1,39.62,29.33Z"/><path class="cls-2" d="M46.66,32.73a4.75,4.75,0,0,1-1.85-1.79,5.39,5.39,0,0,1,0-5.17A4.59,4.59,0,0,1,46.66,24a5.47,5.47,0,0,1,2.68-.64,5.11,5.11,0,0,1,2.38.53,3.81,3.81,0,0,1,1.62,1.56L52,26.31a3,3,0,0,0-1.15-1,3.22,3.22,0,0,0-1.52-.36,3.55,3.55,0,0,0-1.73.43,3,3,0,0,0-1.21,1.21A3.7,3.7,0,0,0,46,28.35a3.75,3.75,0,0,0,.43,1.83,3,3,0,0,0,1.21,1.21,3.44,3.44,0,0,0,1.73.43,3.33,3.33,0,0,0,1.52-.35A3.06,3.06,0,0,0,52,30.41l1.35.85a3.83,3.83,0,0,1-1.62,1.57,5.12,5.12,0,0,1-2.38.55A5.48,5.48,0,0,1,46.66,32.73Z"/><path class="cls-2" d="M55.67,21.21a1.07,1.07,0,0,1-.34-.81,1.13,1.13,0,0,1,.34-.83,1.17,1.17,0,0,1,.86-.34,1.2,1.2,0,0,1,.86.32,1.08,1.08,0,0,1,.35.81,1.13,1.13,0,0,1-.35.84,1.15,1.15,0,0,1-.86.35A1.17,1.17,0,0,1,55.67,21.21Zm0,2.23h1.78v9.82H55.64Z"/><path class="cls-2" d="M69,24.43a4.28,4.28,0,0,1,1.1,3.18v5.65H68.36V27.81a3.06,3.06,0,0,0-.68-2.15,2.61,2.61,0,0,0-2-.72,3.08,3.08,0,0,0-2.28.84,3.29,3.29,0,0,0-.83,2.42v5.06H60.82V23.44h1.7v1.48A3.54,3.54,0,0,1,64,23.75a5.08,5.08,0,0,1,2.08-.4A4.09,4.09,0,0,1,69,24.43Z"/><path class="cls-2" d="M88.68,24.42a4.32,4.32,0,0,1,1.08,3.19v5.65H88V27.81a3.11,3.11,0,0,0-.66-2.15,2.41,2.41,0,0,0-1.88-.72,2.82,2.82,0,0,0-2.15.84,3.41,3.41,0,0,0-.8,2.42v5.06H80.71V27.81a3.11,3.11,0,0,0-.66-2.15,2.41,2.41,0,0,0-1.88-.72,2.82,2.82,0,0,0-2.15.84,3.41,3.41,0,0,0-.8,2.42v5.06H73.44V23.44h1.71V24.9a3.56,3.56,0,0,1,1.41-1.16,4.79,4.79,0,0,1,2-.39,4.32,4.32,0,0,1,2,.46A3.19,3.19,0,0,1,82,25.16a3.74,3.74,0,0,1,1.55-1.33,5.08,5.08,0,0,1,2.24-.48A4,4,0,0,1,88.68,24.42Z"/><path class="cls-2" d="M94.67,32.73a4.67,4.67,0,0,1-1.82-1.79,5.39,5.39,0,0,1,0-5.17A4.52,4.52,0,0,1,94.67,24a5.37,5.37,0,0,1,2.64-.64,5.3,5.3,0,0,1,2.62.64,4.58,4.58,0,0,1,1.82,1.78,5.39,5.39,0,0,1,0,5.17,4.74,4.74,0,0,1-1.82,1.79,5.3,5.3,0,0,1-2.62.65A5.38,5.38,0,0,1,94.67,32.73ZM99,31.38a3.08,3.08,0,0,0,1.18-1.22,4,4,0,0,0,0-3.62A3,3,0,0,0,99,25.33a3.4,3.4,0,0,0-1.69-.43,3.43,3.43,0,0,0-1.7.43,3.08,3.08,0,0,0-1.19,1.21,4,4,0,0,0,0,3.62,3.17,3.17,0,0,0,1.19,1.22,3.34,3.34,0,0,0,1.7.44A3.3,3.3,0,0,0,99,31.38Z"/><path class="cls-2" d="M108,23.79a5,5,0,0,1,2.21-.44v1.72l-.41,0a3,3,0,0,0-2.27.86,3.44,3.44,0,0,0-.83,2.46v4.89h-1.78V23.44h1.71v1.65A3,3,0,0,1,108,23.79Z"/><path class="cls-2" d="M119,24.35a3.86,3.86,0,0,1,1.08,3v5.93h-1.68V32a2.86,2.86,0,0,1-1.27,1,4.73,4.73,0,0,1-2,.37,4.09,4.09,0,0,1-2.64-.8,2.75,2.75,0,0,1,0-4.18,4.62,4.62,0,0,1,3-.79h2.82v-.35a2.26,2.26,0,0,0-.66-1.76,2.82,2.82,0,0,0-2-.62,5.29,5.29,0,0,0-1.71.29,4.38,4.38,0,0,0-1.4.77l-.75-1.33a5.51,5.51,0,0,1,1.82-.94,7.49,7.49,0,0,1,2.24-.32A4.44,4.44,0,0,1,119,24.35Zm-1.77,7.2a2.57,2.57,0,0,0,1.07-1.29V28.89h-2.74c-1.51,0-2.26.51-2.26,1.52a1.4,1.4,0,0,0,.57,1.17,2.69,2.69,0,0,0,1.6.42A3.34,3.34,0,0,0,117.26,31.55Z"/><path class="cls-2" d="M123.41,19.51h1.78V33.26h-1.78Z"/><path class="cls-2" d="M137.43,29h-8A3.06,3.06,0,0,0,130.6,31a4,4,0,0,0,5.26-.4l1,1.15A4.33,4.33,0,0,1,135.18,33a6.25,6.25,0,0,1-5-.23A4.65,4.65,0,0,1,128.34,31a5.13,5.13,0,0,1-.66-2.6,5.2,5.2,0,0,1,.64-2.58A4.5,4.5,0,0,1,130.08,24a5,5,0,0,1,2.53-.64,4.86,4.86,0,0,1,2.51.64,4.49,4.49,0,0,1,1.73,1.78,5.53,5.53,0,0,1,.62,2.64A4.26,4.26,0,0,1,137.43,29Zm-7-3.32a3.12,3.12,0,0,0-1,2h6.3a3.12,3.12,0,0,0-1-2,3,3,0,0,0-2.14-.79A3.07,3.07,0,0,0,130.47,25.63Z"/><path class="cls-2" d="M140.44,33.05a5,5,0,0,1-1.75-.82l.74-1.41a5.51,5.51,0,0,0,1.58.74,6.67,6.67,0,0,0,1.87.28c1.56,0,2.34-.45,2.34-1.34a.86.86,0,0,0-.32-.7,2,2,0,0,0-.78-.38q-.48-.12-1.35-.27a13.1,13.1,0,0,1-1.94-.43,2.92,2.92,0,0,1-1.28-.81,2.28,2.28,0,0,1-.54-1.62,2.52,2.52,0,0,1,1.11-2.14,5,5,0,0,1,3-.8,8.21,8.21,0,0,1,2,.24,5,5,0,0,1,1.61.65l-.76,1.4a5.15,5.15,0,0,0-2.83-.77,3.27,3.27,0,0,0-1.73.37,1.11,1.11,0,0,0-.59,1,1,1,0,0,0,.33.76,2.15,2.15,0,0,0,.83.41c.33.08.79.18,1.38.29a16.66,16.66,0,0,1,1.92.44,2.84,2.84,0,0,1,1.25.79,2.18,2.18,0,0,1,.52,1.56,2.46,2.46,0,0,1-1.14,2.12,5.44,5.44,0,0,1-3.11.79A8.06,8.06,0,0,1,140.44,33.05Z"/><path class="cls-3" d="M26.47,37.41a6.37,6.37,0,0,0,1.24-4,6.64,6.64,0,0,0-1.24-4.14A6.32,6.32,0,0,0,23.08,27a5.93,5.93,0,0,0,2.42-2.24,6.58,6.58,0,0,0,.9-3.5,6,6,0,0,0-1.06-3.55,9.2,9.2,0,0,1,1.07-.13,9.05,9.05,0,0,1,7,3.05l2.3-2.31a10.9,10.9,0,0,0-4.1-3,13.6,13.6,0,0,0-5.3-1A13.33,13.33,0,0,0,19.55,16a12.39,12.39,0,0,0-4.7,4.72,13.48,13.48,0,0,0-1.7,6.75,13.49,13.49,0,0,0,1.7,6.76A12.31,12.31,0,0,0,19.53,39a13.25,13.25,0,0,0,6.7,1.71,13.39,13.39,0,0,0,5.32-1,10.94,10.94,0,0,0,4.12-3l-2.3-2.32A9.06,9.06,0,0,1,26.47,37.41Zm-5-18.51.17-.07a3.55,3.55,0,0,1,1.28,2.9,3.55,3.55,0,0,1-1.47,3.08,7.12,7.12,0,0,1-4.19,1.05h-.33a10.13,10.13,0,0,1,1.06-3.41A9.2,9.2,0,0,1,21.42,18.9Zm-4.58,9.94H18.1c4,0,6,1.43,6,4.31a3.62,3.62,0,0,1-1.52,3.23c-.07,0-.17.09-.25.14-.31-.14-.65-.22-.95-.39a9.27,9.27,0,0,1-3.48-3.55A10.13,10.13,0,0,1,16.84,28.84Z"/></svg>