<svg id="Capa_1" data-name="Capa 1" xmlns="http://www.w3.org/2000/svg" xmlns:xlink="http://www.w3.org/1999/xlink" viewBox="0 0 19 18"><defs><style>.cls-1{fill:url(#Degradado_sin_nombre_15);}.cls-2{fill:#fff;}</style><linearGradient id="Degradado_sin_nombre_15" x1="9.08" y1="1" x2="9.08" y2="16.32" gradientUnits="userSpaceOnUse"><stop offset="0.3" stop-color="#ff848a"/><stop offset="0.33" stop-color="#fd7e86"/><stop offset="0.57" stop-color="#f14d66"/><stop offset="0.75" stop-color="#e92f52"/><stop offset="0.85" stop-color="#e6244a"/></linearGradient></defs><title>logo</title><path class="cls-1" d="M13.34,9.29A3.86,3.86,0,0,1,16.4,5.51a7.66,7.66,0,1,0-.6,7.38A3.86,3.86,0,0,1,13.34,9.29Z"/><path class="cls-2" d="M9.32,11.76a1.94,1.94,0,0,0,.38-1.21,2,2,0,0,0-.38-1.27,1.89,1.89,0,0,0-1-.69A1.82,1.82,0,0,0,9,7.9,2.05,2.05,0,0,0,9.3,6.83,1.88,1.88,0,0,0,9,5.74a3.31,3.31,0,0,1,.33,0,2.78,2.78,0,0,1,2.13.94l.7-.71A3.34,3.34,0,0,0,10.88,5,4.08,4.08,0,0,0,9.25,4.7a4.16,4.16,0,0,0-2,.52A3.78,3.78,0,0,0,5.76,6.67a4.17,4.17,0,0,0-.52,2.06,4.18,4.18,0,0,0,.52,2.07,3.87,3.87,0,0,0,1.43,1.44,4.06,4.06,0,0,0,2.05.52,4.12,4.12,0,0,0,1.63-.31,3.4,3.4,0,0,0,1.26-.93l-.7-.7A2.77,2.77,0,0,1,9.32,11.76ZM7.77,6.1l.05,0A1.06,1.06,0,0,1,8.21,7a1.08,1.08,0,0,1-.44.94,2.16,2.16,0,0,1-1.29.33h-.1a3.14,3.14,0,0,1,.33-1.05A2.75,2.75,0,0,1,7.77,6.1Zm-1.4,3h.39c1.23,0,1.84.44,1.84,1.32a1.11,1.11,0,0,1-.46,1l-.08,0c-.09-.05-.2-.07-.29-.12a2.85,2.85,0,0,1-1.06-1.09A3.15,3.15,0,0,1,6.37,9.14Z"/></svg>