<svg id="Capa_1" enable-background="new 0 0 512 512" height="512" viewBox="0 0 512 512" width="512" xmlns="http://www.w3.org/2000/svg" xmlns:xlink="http://www.w3.org/1999/xlink"><linearGradient id="SVGID_1_" gradientUnits="userSpaceOnUse" x1="256" x2="256" y1="512" y2="0"><stop offset="0" stop-color="#ffc2cc"/><stop offset="1" stop-color="#fff2f4"/></linearGradient><linearGradient id="SVGID_2_" gradientTransform="matrix(.707 .707 -.707 .707 258.29 -83.325)" gradientUnits="userSpaceOnUse" x1="238.32" x2="238.32" y1="451.379" y2="31.743"><stop offset="0" stop-color="#ffa68d"/><stop offset="1" stop-color="#fd3a84"/></linearGradient><g><g><circle cx="256" cy="256" fill="url(#SVGID_1_)" r="256"/></g><g><g><path d="m156.171 241.279c1.748-1.748 83.107-83.107 81.45-81.45 3.518-3.518 3.518-9.21 0-12.728-3.517-3.518-9.21-3.518-12.728 0l-37.74 37.74-16.49-3.298c-2.952-.59-6.003.335-8.129 2.461l-25.454 25.456c-3.517 3.518-3.517 9.21 0 12.728zm-31.819 82.73c-15.717 15.717-18.868 64.024-19.34 73.545-.13 2.542.827 5.015 2.623 6.812 1.796 1.796 4.27 2.753 6.812 2.623 9.521-.473 57.828-3.623 73.545-19.34 17.544-17.544 17.544-46.094 0-63.639-17.545-17.545-46.096-17.545-63.64-.001zm280.01-216.371c-3.518-3.518-9.21-3.518-12.728 0l-9.485 9.485c-15.271-2.127-63.295-5.983-98.328 22.707l88.348 88.349c28.69-35.032 24.834-83.057 22.707-98.328l9.485-9.485c3.518-3.518 3.518-9.21.001-12.728zm-127.277 114.55c-3.511 3.511-3.511 9.217 0 12.728s9.216 3.511 12.728 0c3.511-3.511 3.511-9.217 0-12.728-3.512-3.512-9.217-3.512-12.728 0zm75.086 52.191c-2.406 2.406-79.811 79.811-81.45 81.45l19.092 19.092c3.517 3.518 9.21 3.518 12.728 0l25.456-25.456c2.125-2.125 3.051-5.177 2.461-8.129l-3.298-16.49 37.74-37.74c3.518-3.518 3.518-9.21 0-12.728s-9.212-3.517-12.729.001zm-151.453 49.63 38.183-38.183c3.515-3.515 3.515-9.213 0-12.728s-9.213-3.515-12.728 0l-38.183 38.183c-3.563 3.563-3.564 9.164 0 12.728 3.565 3.565 9.165 3.564 12.728 0zm70.003-171.824-108.186 108.186c-3.563 3.563-3.564 9.164 0 12.728l19.092 19.091 31.819-31.819c10.528-10.527 27.656-10.527 38.183 0 10.528 10.528 10.528 27.656 0 38.183l-31.819 31.819 19.092 19.092c3.564 3.564 9.165 3.563 12.728 0l108.186-108.186zm-6.364 95.458c-10.564-10.564-10.563-27.62 0-38.183 10.564-10.564 27.619-10.564 38.183 0s10.564 27.619 0 38.183c-10.563 10.564-27.619 10.564-38.183 0z" fill="url(#SVGID_2_)"/></g></g></g></svg>